<svg width="86" height="48" viewBox="0 0 86 48" fill="none" xmlns="http://www.w3.org/2000/svg">
<g clip-path="url(#clip0_26_8)">
<g clip-path="url(#clip1_26_8)">
<path d="M79.1526 22.2007C79.5444 22.8296 79.9234 23.4712 80.2874 24.1263C91.8219 44.8852 84.7356 70.8467 64.4593 82.1131C44.1831 93.3794 18.3954 85.6841 6.86092 64.9253C6.49692 64.2702 6.15142 63.6099 5.82434 62.9451C15.538 78.0906 38.5084 81.6605 58.1452 70.7495C77.782 59.8385 86.8824 38.4485 79.1526 22.2007ZM22.689 6.93842C37.1041 -1.07124 54.3031 0.505423 67.1876 9.54395C55.7425 3.096 39.5325 3.29944 25.1175 11.309C10.7025 19.3187 1.9677 32.9756 1.39778 46.0997C0.528254 30.3851 8.27393 14.9481 22.689 6.93842Z" fill="#4ECDC4"/>
</g>
<path d="M2.48 46.2828V45.0828L6.464 44.5068H7.376L11.984 45.0828V46.2828H2.48ZM5.36 46.2828L15.968 13.9788H18.272L28.976 46.2828H24.08L15.248 18.2028H16.112L15.92 18.8268L7.136 46.2828H5.36ZM10.016 35.3868V33.8508H22.88V35.3868H10.016ZM19.376 46.2828V45.0828L24.8 44.4108H27.056L31.664 45.0828V46.2828H19.376ZM32.8171 46.2828V45.0828L38.2411 44.4108H39.9691L45.2971 45.0828V46.2828H32.8171ZM36.6571 46.2828C36.7211 44.9068 36.7531 43.3868 36.7531 41.7228C36.7851 40.0268 36.8011 38.2828 36.8011 36.4908C36.8011 34.6668 36.8011 32.9228 36.8011 31.2588V29.0988C36.8011 27.4348 36.8011 25.7388 36.8011 24.0108C36.8011 22.2508 36.7851 20.5388 36.7531 18.8748C36.7531 17.1788 36.7211 15.6428 36.6571 14.2668H41.5051C41.4731 15.6428 41.4411 17.1628 41.4091 18.8268C41.3771 20.4908 41.3611 22.2188 41.3611 24.0108C41.3611 25.7708 41.3611 27.4988 41.3611 29.1948V31.1148C41.3611 32.8428 41.3611 34.6188 41.3611 36.4428C41.3611 38.2348 41.3771 39.9788 41.4091 41.6748C41.4411 43.3708 41.4731 44.9068 41.5051 46.2828H36.6571ZM57.0091 46.7148C55.4411 46.7148 54.2731 46.4748 53.5051 45.9948C52.7371 45.4828 52.1291 44.5868 51.6811 43.3068L49.0411 36.1068C48.5931 34.8908 48.1291 33.9468 47.6491 33.2748C47.1691 32.5708 46.5611 32.0908 45.8251 31.8348C45.1211 31.5788 44.1771 31.4508 42.9931 31.4508H38.8651V29.9148H44.4811C46.1131 29.9148 47.4571 29.5948 48.5131 28.9548C49.5691 28.2828 50.3371 27.3868 50.8171 26.2668C51.2971 25.1468 51.5371 23.9148 51.5371 22.5708C51.5371 20.4268 51.0091 18.7628 49.9531 17.5788C48.8971 16.3948 47.2331 15.8028 44.9611 15.8028H38.8651V14.2668H45.2971C48.7211 14.2668 51.3771 14.9868 53.2651 16.4268C55.1851 17.8348 56.1451 19.8348 56.1451 22.4268C56.1451 23.8668 55.7451 25.2268 54.9451 26.5068C54.1771 27.7868 52.9451 28.8428 51.2491 29.6748C49.5851 30.5068 47.4411 30.9388 44.8171 30.9708V30.6348C46.1611 30.6668 47.3131 30.8108 48.2731 31.0668C49.2331 31.2908 50.0651 31.6588 50.7691 32.1708C51.4731 32.6508 52.0811 33.2748 52.5931 34.0428C53.1371 34.8108 53.6331 35.7708 54.0811 36.9228L57.4891 45.3228L55.5211 44.5068L60.6571 45.0828V46.2828C60.3051 46.3788 59.9371 46.4588 59.5531 46.5228C59.1691 46.5868 58.7691 46.6348 58.3531 46.6668C57.9371 46.6988 57.4891 46.7148 57.0091 46.7148ZM32.8171 15.4668V14.2668H39.7291V16.1388H38.2411L32.8171 15.4668ZM75.5743 47.0508C73.4303 47.0508 71.4463 46.6668 69.6223 45.8988C67.7983 45.1308 66.2143 44.0268 64.8703 42.5868C63.5263 41.1468 62.4703 39.3868 61.7023 37.3068C60.9663 35.2268 60.5983 32.8908 60.5983 30.2988C60.5983 27.6748 60.9823 25.3388 61.7503 23.2908C62.5503 21.2108 63.6383 19.4508 65.0143 18.0108C66.3903 16.5388 67.9743 15.4188 69.7663 14.6508C71.5903 13.8828 73.5423 13.4988 75.6223 13.4988C76.8703 13.4988 78.2143 13.6428 79.6543 13.9308C81.1263 14.2188 82.5663 14.8108 83.9743 15.7068L84.3583 23.0988H82.8223L80.2783 15.2748L82.8703 15.8508L83.0143 17.5308C81.7663 16.5388 80.5663 15.8668 79.4143 15.5148C78.2623 15.1628 77.1263 14.9868 76.0063 14.9868C74.1503 14.9868 72.4223 15.5628 70.8223 16.7148C69.2543 17.8668 67.9903 19.5788 67.0303 21.8508C66.1023 24.1228 65.6383 26.9388 65.6383 30.2988C65.6383 33.6588 66.0863 36.4748 66.9823 38.7468C67.8783 41.0188 69.0943 42.7308 70.6303 43.8828C72.1663 45.0028 73.9103 45.5628 75.8623 45.5628C76.9823 45.5628 78.1823 45.3868 79.4623 45.0348C80.7423 44.6828 82.0063 44.0108 83.2543 43.0188L83.2063 44.6988L80.6623 45.2268L83.1583 37.3548H84.6943L84.3103 44.7948C82.9663 45.6268 81.5583 46.2028 80.0863 46.5228C78.6143 46.8748 77.1103 47.0508 75.5743 47.0508Z" fill="black"/>
</g>
<defs>
<clipPath id="clip0_26_8">
<rect width="86" height="48" fill="white"/>
</clipPath>
<clipPath id="clip1_26_8">
<rect width="82.5647" height="33.0188" fill="white" transform="translate(-10 25.1018) rotate(-29.0585)"/>
</clipPath>
</defs>
</svg>
